# xmcd CD database file
#
# Track frame offsets:
#	150
#	47047
#	88056
#	105800
#	126557
#
# Disc length: 2168 seconds
#
# Revision: 4
# Processed by: cddbd v1.5.2PL0 Copyright (c) Steve Scherf et al.
# Submitted via: CDex 1.70beta3
#
DISCID=3a087605
DTITLE=岡村靖幸 - Live弾き語り集
DYEAR=2005
DGENRE=Rock
TTITLE0=弾き語り (1996年2月14日 日本武道館)
TTITLE1=弾き語り (1992年12月26日 東京ベイNKホール)
TTITLE2=弾き語り (1991年3月11日 中野サンプラザ)
TTITLE3=弾き語り (1991年1月6日 PARCO劇場)
TTITLE4=弾き語り (1996年2月10日 日本武道館)
EXTD=YEAR: 2005
EXTT0=
EXTT1=
EXTT2=
EXTT3=
EXTT4=
PLAYORDER=
